Coordinates
version=1
nRows=49
nColumns=12
inDegrees=yes

Units are S.I. units (second, meters, Newtons, ...)
Angles are in degrees

endheader
time	SC_y	SC_z	SC_x	AC_y	AC_z	AC_x	GH_y	GH_z	GH_yy	EL_x	PS_y
       0.0              -36.29          17.65          31.48          61.62         -6.075           10.7          94.52           85.8          122.6          118.7          58.77
   0.00145              -36.29          17.65          31.47          61.62         -6.077           10.7           94.5          85.78          122.6          118.7          58.77
    0.0029              -36.29          17.65          31.47          61.62         -6.079           10.7          94.49          85.77          122.5          118.7          58.78
  0.004349              -36.29          17.65          31.47          61.61         -6.081          10.69          94.47          85.76          122.5          118.7          58.78
  0.005799              -36.28          17.65          31.46          61.61         -6.083          10.69          94.45          85.74          122.4          118.7          58.79
  0.007249              -36.28          17.65          31.46           61.6         -6.086          10.68          94.43          85.73          122.4          118.7          58.79
  0.008699              -36.28          17.65          31.46           61.6         -6.088          10.68          94.41          85.71          122.3          118.7           58.8
   0.01015              -36.28          17.64          31.45          61.59         -6.091          10.67          94.39          85.69          122.2          118.7          58.81
    0.0116              -36.28          17.64          31.45          61.59         -6.094          10.67          94.37          85.67          122.2          118.7          58.82
   0.01305              -36.28          17.64          31.44          61.58         -6.097          10.66          94.35          85.65          122.1          118.7          58.82
    0.0145              -36.28          17.64          31.43          61.57           -6.1          10.66          94.32          85.63          122.0          118.7          58.83
   0.01595              -36.28          17.64          31.43          61.56         -6.103          10.65          94.29          85.61          122.0          118.7          58.84
    0.0174              -36.28          17.64          31.42          61.56         -6.107          10.64          94.26          85.58          121.9          118.7          58.85
   0.01885              -36.28          17.64          31.42          61.55         -6.111          10.64          94.23          85.55          121.8          118.7          58.86
    0.0203              -36.28          17.64          31.41          61.54         -6.116          10.63          94.19          85.52          121.7          118.7          58.88
   0.02175              -36.28          17.64           31.4          61.53          -6.12          10.62          94.16          85.49          121.6          118.7          58.89
    0.0232              -36.27          17.64          31.39          61.52         -6.126          10.61          94.11          85.45          121.4          118.6           58.9
   0.02465              -36.27          17.63          31.38           61.5         -6.131           10.6          94.07          85.41          121.3          118.6          58.92
    0.0261              -36.27          17.63          31.37          61.49         -6.137          10.59          94.02          85.37          121.2          118.6          58.94
   0.02755              -36.27          17.63          31.36          61.47         -6.144          10.57          93.96          85.33          121.0          118.6          58.95
     0.029              -36.27          17.63          31.34          61.46         -6.152          10.56           93.9          85.28          120.8          118.6          58.97
   0.03045              -36.27          17.63          31.33          61.44          -6.16          10.54          93.84          85.22          120.7          118.6           59.0
    0.0319              -36.26          17.62          31.31          61.42         -6.169          10.53          93.77          85.16          120.5          118.6          59.02
   0.03335              -36.26          17.62           31.3           61.4         -6.179          10.51          93.69          85.09          120.2          118.6          59.05
   0.03479              -36.26          17.62          31.28          61.37          -6.19          10.49           93.6          85.01          120.0          118.6          59.08
   0.03624              -36.25          17.61          31.26          61.35         -6.202          10.47           93.5          84.93          119.7          118.5          59.11
   0.03769              -36.25          17.61          31.23          61.32         -6.216          10.44          93.38          84.83          119.4          118.5          59.15
   0.03914              -36.25          17.61           31.2          61.28         -6.232          10.41          93.26          84.73          119.0          118.5          59.19
   0.04059              -36.24           17.6          31.17          61.24          -6.25          10.38          93.12          84.61          118.6          118.5          59.24
   0.04204              -36.24           17.6          31.14           61.2          -6.27          10.34          92.96          84.47          118.1          118.4           59.3
   0.04349              -36.23          17.59           31.1          61.15         -6.292           10.3          92.77          84.31          117.6          118.4          59.36
   0.04494              -36.23          17.58          31.05          61.09         -6.319          10.25          92.56          84.13          117.0          118.4          59.43
   0.04639              -36.22          17.58           31.0          61.03         -6.349          10.19          92.32          83.92          116.3          118.3          59.51
   0.04784              -36.21          17.57          30.94          60.95         -6.384          10.13          92.03          83.68          115.5          118.3          59.61
   0.04929               -36.2          17.56          30.86          60.86         -6.426          10.05           91.7           83.4          114.6          118.2          59.72
   0.05074              -36.19          17.54          30.78          60.75         -6.474          9.958          91.31          83.07          113.5          118.1          59.85
   0.05219              -36.17          17.53          30.68          60.63         -6.532           9.85          90.84          82.67          112.1          118.1          60.01
   0.05364              -36.16          17.51          30.56          60.48         -6.601          9.721          90.29           82.2          110.5          118.0           60.2
   0.05509              -36.13          17.49          30.41          60.29         -6.685          9.564          89.61          81.63          108.6          117.8          60.43
   0.05654              -36.11          17.46          30.23          60.07         -6.787          9.373          88.79          80.93          106.3          117.7          60.71
   0.05799              -36.08          17.43          30.01          59.79         -6.914          9.137          87.77          80.06          103.4          117.5          61.05
   0.05944              -36.04          17.38          29.73          59.45         -7.071          8.843          86.51          78.99          99.76          117.3          61.48
   0.06089              -35.99          17.33          29.39          59.02          -7.27          8.473          84.91          77.63          95.21          117.0          62.03
   0.06234              -35.93          17.26          28.95          58.47         -7.522          8.002          82.88           75.9          89.43          116.7          62.71
   0.06379              -35.85          17.18          28.38          57.76         -7.845          7.399          80.29           73.7          82.02          116.2           63.6
   0.06524              -35.74          17.07          27.65          56.86         -8.259          6.626          76.95          70.86          72.52          115.6          64.73
   0.06669              -35.61          16.93          26.73           55.7         -8.788          5.638           72.7          67.24          60.39          114.8          66.17
   0.06814              -35.44          16.75          25.56          54.25         -9.453          4.396          67.34          62.69          45.13          113.9          67.99
   0.06959              -35.24          16.53          24.14          52.48         -10.26          2.882          60.82          57.14          26.53          112.7           70.2
